<svg width="415" height="97" viewBox="0 0 415 97" fill="none" xmlns="http://www.w3.org/2000/svg">
<path d="M25.949 66.9373C20.4116 64.2288 16.1837 60.2306 13.2653 54.9427C10.4218 49.6548 9 43.1416 9 35.4032C9 33.1769 9.15287 31.0425 9.4586 28.9999H27.2444C26.755 31.0689 26.5103 33.3 26.5103 35.6934C26.5103 40.2075 27.2211 44.2057 28.6429 47.688C30.0647 51.1702 32.3096 53.9109 35.3776 55.91C38.4457 57.8446 42.4491 58.8119 47.3879 58.8119C49.0341 58.8119 50.4559 58.7797 51.6532 58.7152C52.9253 58.5862 54.0852 58.4573 55.1328 58.3283C62 60 45.3359 76.2933 25.949 66.9373Z" fill="url(#paint0_linear_56_890)"/>
<path d="M31.7397 19.9999C33.4302 18.009 35.466 16.3723 37.847 15.0899C41.5137 13.1553 45.8164 12.188 50.7552 12.188C76 12.188 47.9422 -4.92661 28.0817 4.35281C21.8708 7.25472 17.1191 11.3496 13.8265 16.6375C13.1691 17.718 12.5788 18.8388 12.0557 19.9999H31.7397Z" fill="url(#paint1_linear_56_890)"/>
<path fill-rule="evenodd" clip-rule="evenodd" d="M54.9766 31.2439H34.0103V43.4319H49.1634V57.8447C48.1906 57.9737 47.1804 58.1349 46.1328 58.3283C45.0852 58.4573 43.9253 58.5863 42.6532 58.7153C41.4559 58.7797 40.0341 58.812 38.3879 58.812C33.4491 58.812 29.4457 57.8447 26.3776 55.9101C23.3096 53.911 21.0647 51.1703 19.6429 47.688C18.2211 44.2057 17.5103 40.2075 17.5103 35.6935C17.5103 33.3001 17.755 31.0689 18.2444 29H0.458605C0.152868 31.0425 0 33.1769 0 35.4033C0 43.1417 1.42177 49.6549 4.26532 54.9428C7.18369 60.2307 11.4116 64.2289 16.949 66.9373C22.5613 69.6458 29.3334 71 37.2654 71C43.0273 71 48.1532 70.6453 52.643 69.936C56.6523 69.3129 60.5173 68.4908 64.238 67.4698C61.8544 65.3476 59.8635 62.8386 58.2653 59.9428C55.4218 54.6549 54 48.1417 54 40.4033C54 37.1544 54.3255 34.1013 54.9766 31.2439ZM3.05573 20C3.57884 18.8388 4.16911 17.718 4.82654 16.6376C8.11907 11.3497 12.8708 7.25477 19.0817 4.35286C25.2926 1.45095 32.8878 0 41.8675 0C46.1328 0 50.3233 0.386922 54.4389 1.16077C58.5546 1.9346 62.2961 2.96639 65.6634 4.25613L60.0512 15.9605C57.5818 14.8642 54.7757 13.9614 51.6328 13.252C48.4899 12.5427 45.1974 12.188 41.7552 12.188C36.8164 12.188 32.5137 13.1553 28.847 15.0899C26.466 16.3724 24.4302 18.0091 22.7397 20H3.05573ZM93.0103 33.2439H124.776V69.0341C120.585 70.2593 116.208 71.2266 111.643 71.936C107.153 72.6453 102.027 73 96.2654 73C88.3334 73 81.5613 71.6458 75.949 68.9373C70.4116 66.2289 66.1837 62.2307 63.2653 56.9428C60.4218 51.6549 59 45.1417 59 37.4033C59 34.4393 59.271 31.6382 59.8129 29H77.8104C76.9436 31.6105 76.5103 34.5084 76.5103 37.6935C76.5103 42.2075 77.2211 46.2057 78.6429 49.688C80.0647 53.1703 82.3096 55.911 85.3776 57.9101C88.4457 59.8447 92.4491 60.812 97.3879 60.812C99.0341 60.812 100.456 60.7797 101.653 60.7153C102.925 60.5863 104.085 60.4573 105.133 60.3283C106.18 60.1349 107.191 59.9737 108.163 59.8447V45.4319H93.0103V33.2439ZM83.6857 20C84.9304 18.8838 86.3174 17.9138 87.847 17.0899C91.5137 15.1553 95.8164 14.188 100.755 14.188C104.197 14.188 107.49 14.5427 110.633 15.252C113.776 15.9614 116.582 16.8642 119.051 17.9605L124.663 6.25613C121.296 4.96639 117.555 3.9346 113.439 3.16077C109.323 2.38692 105.133 2 100.867 2C91.8878 2 84.2926 3.45095 78.0817 6.35286C71.8708 9.25477 67.1191 13.3497 63.8265 18.6376C63.5544 19.0848 63.2938 19.5389 63.0447 20H83.6857Z" fill="url(#paint2_linear_56_890)"/>
<path d="M63 20.5C67.5 7.5 86 2 100.867 2C105.132 2 109.323 2.38692 113.439 3.16077C117.554 3.9346 121.296 4.96639 124.663 6.25613L119.051 17.9605C116.581 16.8642 113.775 15.9614 110.632 15.252C107.49 14.5427 104.197 14.188 100.755 14.188C95.816 14.188 89.5 15.252 83.5 20L63 20.5Z" fill="url(#paint3_linear_56_890)"/>
<path d="M171.939 19.72C177.868 19.72 182.669 22.04 186.342 26.68C190.015 31.2556 191.852 38.0222 191.852 46.98C191.852 52.9733 190.982 58.0322 189.242 62.1567C187.502 66.2167 185.118 69.2778 182.089 71.34C179.06 73.4022 175.548 74.4333 171.552 74.4333C169.039 74.4333 166.848 74.1111 164.979 73.4667C163.174 72.8222 161.628 71.9845 160.339 70.9533C159.05 69.9222 157.922 68.8267 156.955 67.6667H156.182C156.44 68.8911 156.633 70.18 156.762 71.5333C156.891 72.8222 156.955 74.1111 156.955 75.4V96.6667H142.552V20.6867H154.249L156.279 27.55H156.955C157.922 26.1322 159.082 24.8433 160.435 23.6833C161.789 22.4589 163.4 21.4922 165.269 20.7833C167.202 20.0744 169.425 19.72 171.939 19.72ZM167.299 31.2233C164.785 31.2233 162.788 31.7389 161.305 32.77C159.823 33.8011 158.728 35.38 158.019 37.5067C157.374 39.5689 157.02 42.1789 156.955 45.3367V46.8833C156.955 50.2989 157.278 53.1989 157.922 55.5833C158.566 57.9033 159.662 59.6756 161.209 60.9C162.755 62.1244 164.85 62.7367 167.492 62.7367C169.683 62.7367 171.488 62.1244 172.905 60.9C174.323 59.6756 175.386 57.8711 176.095 55.4867C176.804 53.1022 177.159 50.2022 177.159 46.7867C177.159 41.6311 176.353 37.7644 174.742 35.1867C173.195 32.5444 170.714 31.2233 167.299 31.2233Z" fill="white"/>
<path d="M251.671 46.98C251.671 51.3622 251.058 55.2611 249.834 58.6767C248.674 62.0922 246.966 64.9922 244.711 67.3767C242.519 69.6967 239.845 71.4689 236.687 72.6933C233.529 73.8533 229.953 74.4333 225.957 74.4333C222.284 74.4333 218.868 73.8533 215.711 72.6933C212.617 71.4689 209.943 69.6967 207.687 67.3767C205.432 64.9922 203.659 62.0922 202.371 58.6767C201.146 55.2611 200.534 51.3622 200.534 46.98C200.534 41.1156 201.565 36.1856 203.627 32.19C205.689 28.13 208.654 25.0367 212.521 22.91C216.387 20.7833 220.963 19.72 226.247 19.72C231.209 19.72 235.592 20.7833 239.394 22.91C243.196 25.0367 246.193 28.13 248.384 32.19C250.575 36.1856 251.671 41.1156 251.671 46.98ZM215.227 46.98C215.227 50.46 215.582 53.3922 216.291 55.7767C217.064 58.0967 218.256 59.8689 219.867 61.0933C221.478 62.2533 223.573 62.8333 226.151 62.8333C228.728 62.8333 230.791 62.2533 232.337 61.0933C233.948 59.8689 235.108 58.0967 235.817 55.7767C236.591 53.3922 236.977 50.46 236.977 46.98C236.977 43.5 236.591 40.6 235.817 38.28C235.108 35.96 233.948 34.22 232.337 33.06C230.726 31.9 228.632 31.32 226.054 31.32C222.252 31.32 219.481 32.6411 217.741 35.2833C216.065 37.8611 215.227 41.76 215.227 46.98Z" fill="white"/>
<path d="M277.977 32.8667C277.977 34.8644 277.881 36.8622 277.687 38.86C277.559 40.7933 277.397 42.7589 277.204 44.7567H277.397C278.042 43.8544 278.686 42.9522 279.331 42.05C280.04 41.1478 280.749 40.2456 281.457 39.3433C282.166 38.4411 282.907 37.5711 283.681 36.7333L298.471 20.6867H314.711L293.734 43.5967L315.967 73.4667H299.341L284.164 52.1033L277.977 57.0333V73.4667H263.574V0H277.977V32.8667Z" fill="white"/>
<path d="M345.269 19.72C350.167 19.72 354.355 20.6544 357.835 22.5233C361.38 24.3922 364.119 27.0989 366.052 30.6433C367.985 34.1878 368.952 38.5378 368.952 43.6933V50.6533H334.925C335.054 54.7133 336.247 57.9033 338.502 60.2233C340.822 62.5433 344.012 63.7033 348.072 63.7033C351.488 63.7033 354.581 63.3811 357.352 62.7367C360.123 62.0278 362.991 60.9644 365.955 59.5467V70.6633C363.378 71.9522 360.639 72.8867 357.739 73.4667C354.903 74.1111 351.455 74.4333 347.395 74.4333C342.111 74.4333 337.439 73.4667 333.379 71.5333C329.319 69.5356 326.129 66.5389 323.809 62.5433C321.489 58.5478 320.329 53.5211 320.329 47.4633C320.329 41.2767 321.36 36.1533 323.422 32.0933C325.549 27.9689 328.481 24.8756 332.219 22.8133C335.957 20.7511 340.307 19.72 345.269 19.72ZM345.365 29.9667C342.594 29.9667 340.274 30.8689 338.405 32.6733C336.601 34.4778 335.538 37.2811 335.215 41.0833H355.419C355.419 38.9567 355.032 37.0556 354.259 35.38C353.55 33.7044 352.454 32.3833 350.972 31.4167C349.49 30.45 347.621 29.9667 345.365 29.9667Z" fill="white"/>
<path d="M410.115 19.72C410.824 19.72 411.661 19.7522 412.628 19.8167C413.595 19.8811 414.368 19.9778 414.948 20.1067L413.885 33.64C413.434 33.5111 412.757 33.4144 411.855 33.35C411.017 33.2211 410.276 33.1567 409.631 33.1567C407.763 33.1567 405.958 33.4144 404.218 33.93C402.478 34.3811 400.899 35.1222 399.481 36.1533C398.128 37.1844 397.033 38.57 396.195 40.31C395.421 41.9856 395.035 44.08 395.035 46.5933V73.4667H380.631V20.6867H391.555L393.681 29.58H394.358C395.389 27.7756 396.678 26.1322 398.225 24.65C399.771 23.1678 401.544 21.9756 403.541 21.0733C405.604 20.1711 407.795 19.72 410.115 19.72Z" fill="white"/>
<defs>
<linearGradient id="paint0_linear_56_890" x1="41.8317" y1="2.24442e-07" x2="41.8317" y2="71" gradientUnits="userSpaceOnUse">
<stop stop-color="#4C4C4C"/>
<stop offset="0.312518" stop-color="#CEC4C4"/>
<stop offset="1" stop-color="#4C4C4C"/>
</linearGradient>
<linearGradient id="paint1_linear_56_890" x1="41.8317" y1="2.24442e-07" x2="41.8317" y2="71" gradientUnits="userSpaceOnUse">
<stop stop-color="#4C4C4C"/>
<stop offset="0.312518" stop-color="#CEC4C4"/>
<stop offset="1" stop-color="#4C4C4C"/>
</linearGradient>
<linearGradient id="paint2_linear_56_890" x1="62.3878" y1="0" x2="62.3878" y2="73" gradientUnits="userSpaceOnUse">
<stop stop-color="#E8DFDF"/>
<stop offset="0.531273" stop-color="#F7F6F5"/>
<stop offset="0.750028" stop-color="#C4B6B6"/>
<stop offset="1" stop-color="#E8DFDF"/>
</linearGradient>
<linearGradient id="paint3_linear_56_890" x1="82" y1="12.5" x2="122" y2="1.99999" gradientUnits="userSpaceOnUse">
<stop stop-color="#5D2D29"/>
<stop offset="0.277873" stop-color="#AF222D"/>
<stop offset="1" stop-color="#AF222D"/>
</linearGradient>
</defs>
</svg>
