<svg width="125" height="73" viewBox="0 0 125 73" fill="none" xmlns="http://www.w3.org/2000/svg">
<path d="M25.949 66.9373C20.4116 64.2288 16.1837 60.2306 13.2653 54.9427C10.4218 49.6548 9 43.1416 9 35.4032C9 33.1769 9.15287 31.0425 9.4586 28.9999H27.2444C26.755 31.0689 26.5103 33.3 26.5103 35.6934C26.5103 40.2075 27.2211 44.2057 28.6429 47.688C30.0647 51.1702 32.3096 53.9109 35.3776 55.91C38.4457 57.8446 42.4491 58.8119 47.3879 58.8119C49.0341 58.8119 50.4559 58.7797 51.6532 58.7152C52.9253 58.5862 54.0852 58.4573 55.1328 58.3283C62 60 45.3359 76.2933 25.949 66.9373Z" fill="url(#paint0_linear_56_891)"/>
<path d="M31.7397 19.9999C33.4302 18.009 35.466 16.3723 37.847 15.0899C41.5137 13.1553 45.8164 12.188 50.7552 12.188C76 12.188 47.9422 -4.92661 28.0817 4.35281C21.8708 7.25472 17.1191 11.3496 13.8265 16.6375C13.1691 17.718 12.5788 18.8388 12.0557 19.9999H31.7397Z" fill="url(#paint1_linear_56_891)"/>
<path fill-rule="evenodd" clip-rule="evenodd" d="M54.9766 31.2439H34.0103V43.4319H49.1634V57.8447C48.1906 57.9737 47.1804 58.1349 46.1328 58.3283C45.0852 58.4573 43.9253 58.5863 42.6532 58.7153C41.4559 58.7797 40.0341 58.812 38.3879 58.812C33.4491 58.812 29.4457 57.8447 26.3776 55.9101C23.3096 53.911 21.0647 51.1703 19.6429 47.688C18.2211 44.2057 17.5103 40.2075 17.5103 35.6935C17.5103 33.3001 17.755 31.0689 18.2444 29H0.458605C0.152868 31.0425 0 33.1769 0 35.4033C0 43.1417 1.42177 49.6549 4.26532 54.9428C7.18369 60.2307 11.4116 64.2289 16.949 66.9373C22.5613 69.6458 29.3334 71 37.2654 71C43.0273 71 48.1532 70.6453 52.643 69.936C56.6523 69.3129 60.5173 68.4908 64.238 67.4698C61.8544 65.3476 59.8635 62.8386 58.2653 59.9428C55.4218 54.6549 54 48.1417 54 40.4033C54 37.1544 54.3255 34.1013 54.9766 31.2439ZM3.05573 20C3.57884 18.8388 4.16911 17.718 4.82654 16.6376C8.11907 11.3497 12.8708 7.25477 19.0817 4.35286C25.2926 1.45095 32.8878 0 41.8675 0C46.1328 0 50.3233 0.386922 54.4389 1.16077C58.5546 1.9346 62.2961 2.96639 65.6634 4.25613L60.0512 15.9605C57.5818 14.8642 54.7757 13.9614 51.6328 13.252C48.4899 12.5427 45.1974 12.188 41.7552 12.188C36.8164 12.188 32.5137 13.1553 28.847 15.0899C26.466 16.3724 24.4302 18.0091 22.7397 20H3.05573ZM93.0103 33.2439H124.776V69.0341C120.585 70.2593 116.208 71.2266 111.643 71.936C107.153 72.6453 102.027 73 96.2654 73C88.3334 73 81.5613 71.6458 75.949 68.9373C70.4116 66.2289 66.1837 62.2307 63.2653 56.9428C60.4218 51.6549 59 45.1417 59 37.4033C59 34.4393 59.271 31.6382 59.8129 29H77.8104C76.9436 31.6105 76.5103 34.5084 76.5103 37.6935C76.5103 42.2075 77.2211 46.2057 78.6429 49.688C80.0647 53.1703 82.3096 55.911 85.3776 57.9101C88.4457 59.8447 92.4491 60.812 97.3879 60.812C99.0341 60.812 100.456 60.7797 101.653 60.7153C102.925 60.5863 104.085 60.4573 105.133 60.3283C106.18 60.1349 107.191 59.9737 108.163 59.8447V45.4319H93.0103V33.2439ZM83.6857 20C84.9304 18.8838 86.3174 17.9138 87.847 17.0899C91.5137 15.1553 95.8164 14.188 100.755 14.188C104.197 14.188 107.49 14.5427 110.633 15.252C113.776 15.9614 116.582 16.8642 119.051 17.9605L124.663 6.25613C121.296 4.96639 117.555 3.9346 113.439 3.16077C109.323 2.38692 105.133 2 100.867 2C91.8878 2 84.2926 3.45095 78.0817 6.35286C71.8708 9.25477 67.1191 13.3497 63.8265 18.6376C63.5544 19.0848 63.2938 19.5389 63.0447 20H83.6857Z" fill="url(#paint2_linear_56_891)"/>
<path d="M63 20.5C67.5 7.5 86 2 100.867 2C105.132 2 109.323 2.38692 113.439 3.16077C117.554 3.9346 121.296 4.96639 124.663 6.25613L119.051 17.9605C116.581 16.8642 113.775 15.9614 110.632 15.252C107.49 14.5427 104.197 14.188 100.755 14.188C95.816 14.188 89.5 15.252 83.5 20L63 20.5Z" fill="url(#paint3_linear_56_891)"/>
<defs>
<linearGradient id="paint0_linear_56_891" x1="41.8317" y1="2.24442e-07" x2="41.8317" y2="71" gradientUnits="userSpaceOnUse">
<stop stop-color="#4C4C4C"/>
<stop offset="0.312518" stop-color="#CEC4C4"/>
<stop offset="1" stop-color="#4C4C4C"/>
</linearGradient>
<linearGradient id="paint1_linear_56_891" x1="41.8317" y1="2.24442e-07" x2="41.8317" y2="71" gradientUnits="userSpaceOnUse">
<stop stop-color="#4C4C4C"/>
<stop offset="0.312518" stop-color="#CEC4C4"/>
<stop offset="1" stop-color="#4C4C4C"/>
</linearGradient>
<linearGradient id="paint2_linear_56_891" x1="62.3878" y1="0" x2="62.3878" y2="73" gradientUnits="userSpaceOnUse">
<stop stop-color="#E8DFDF"/>
<stop offset="0.531273" stop-color="#F7F6F5"/>
<stop offset="0.750028" stop-color="#C4B6B6"/>
<stop offset="1" stop-color="#E8DFDF"/>
</linearGradient>
<linearGradient id="paint3_linear_56_891" x1="82" y1="12.5" x2="122" y2="1.99999" gradientUnits="userSpaceOnUse">
<stop stop-color="#5D2D29"/>
<stop offset="0.277873" stop-color="#AF222D"/>
<stop offset="1" stop-color="#AF222D"/>
</linearGradient>
</defs>
</svg>
