<svg width="116" height="174" viewBox="0 0 116 174" fill="none" xmlns="http://www.w3.org/2000/svg">
<g filter="url(#filter0_d_56_95)">
<rect x="4" width="108" height="166" rx="14" fill="url(#paint0_linear_56_95)"/>
<rect x="5" y="1" width="106" height="164" rx="13" stroke="url(#paint1_linear_56_95)" stroke-width="2"/>
</g>
<path d="M44.1859 95.2752C42.0123 94.2121 40.3527 92.6426 39.2071 90.5669C38.0909 88.4912 37.5328 85.9346 37.5328 82.897C37.5328 82.0231 37.5928 81.1853 37.7129 80.3835H44.6944C44.5023 81.1956 44.4062 82.0714 44.4062 83.0109C44.4062 84.7828 44.6853 86.3523 45.2434 87.7192C45.8015 89.0861 46.6827 90.1619 47.887 90.9466C49.0913 91.706 50.6628 92.0857 52.6014 92.0857C53.2476 92.0857 53.8057 92.0731 54.2757 92.0478C54.775 91.9971 55.2303 91.9465 55.6416 91.8959C58.3372 92.5521 51.7959 98.9478 44.1859 95.2752Z" fill="url(#paint2_linear_56_95)"/>
<path d="M46.4589 76.8507C47.1225 76.0692 47.9216 75.4267 48.8563 74.9233C50.2956 74.1639 51.9846 73.7842 53.9232 73.7842C63.8327 73.7842 52.819 67.0661 45.0231 70.7086C42.5851 71.8477 40.7199 73.4551 39.4274 75.5308C39.1694 75.9549 38.9377 76.3949 38.7323 76.8507H46.4589Z" fill="url(#paint3_linear_56_95)"/>
<path fill-rule="evenodd" clip-rule="evenodd" d="M55.5803 81.2643H47.3502V86.0485H53.2983V91.706C52.9165 91.7567 52.5199 91.82 52.1087 91.8959C51.6975 91.9465 51.2422 91.9971 50.7429 92.0478C50.2729 92.0731 49.7148 92.0857 49.0686 92.0857C47.1299 92.0857 45.5584 91.706 44.3541 90.9466C43.1498 90.1619 42.2686 89.0861 41.7105 87.7192C41.1524 86.3523 40.8734 84.7829 40.8734 83.0109C40.8734 82.0714 40.9694 81.1956 41.1615 80.3835H34.18C34.06 81.1853 34 82.0231 34 82.897C34 85.9346 34.5581 88.4913 35.6743 90.5669C36.8198 92.6426 38.4794 94.2121 40.6531 95.2752C42.8561 96.3384 45.5144 96.87 48.628 96.87C50.8897 96.87 52.9018 96.7307 54.6642 96.4523C56.238 96.2077 57.7552 95.885 59.2157 95.4842C58.28 94.6512 57.4985 93.6663 56.8712 92.5296C55.755 90.4539 55.1969 87.8973 55.1969 84.8597C55.1969 83.5844 55.3247 82.3859 55.5803 81.2643ZM35.1995 76.8507C35.4048 76.3949 35.6365 75.9549 35.8946 75.5308C37.187 73.4551 39.0522 71.8477 41.4902 70.7086C43.9282 69.5695 46.9096 69 50.4344 69C52.1087 69 53.7536 69.1519 55.3692 69.4556C56.9847 69.7594 58.4534 70.1644 59.7752 70.6707L57.5722 75.265C56.6028 74.8347 55.5013 74.4803 54.2677 74.2019C53.034 73.9234 51.7415 73.7842 50.3904 73.7842C48.4517 73.7842 46.7628 74.1639 45.3235 74.9233C44.3888 75.4267 43.5897 76.0692 42.9261 76.8507H35.1995ZM70.5097 82.0494H82.9788V96.0983C81.3338 96.5792 79.6155 96.9589 77.8237 97.2374C76.0613 97.5158 74.0492 97.655 71.7875 97.655C68.6739 97.655 66.0156 97.1234 63.8126 96.0603C61.639 94.9971 59.9794 93.4277 58.8338 91.352C57.7176 89.2763 57.1595 86.7197 57.1595 83.6821C57.1595 82.5186 57.2659 81.4191 57.4786 80.3835H64.5432C64.203 81.4082 64.0329 82.5457 64.0329 83.796C64.0329 85.5679 64.3119 87.1373 64.87 88.5043C65.4281 89.8712 66.3093 90.947 67.5136 91.7317C68.718 92.4911 70.2894 92.8708 72.2281 92.8708C72.8743 92.8708 73.4324 92.8582 73.9024 92.8328C74.4017 92.7822 74.857 92.7316 75.2682 92.681C75.6795 92.605 76.076 92.5417 76.4579 92.4911V86.8336H70.5097V82.0494ZM66.8495 76.8507C67.3381 76.4125 67.8826 76.0318 68.483 75.7084C69.9223 74.949 71.6112 74.5693 73.5499 74.5693C74.9011 74.5693 76.1935 74.7085 77.4272 74.987C78.6609 75.2654 79.7624 75.6198 80.7317 76.0501L82.9347 71.4557C81.6129 70.9495 80.1442 70.5445 78.5287 70.2407C76.9131 69.9369 75.2682 69.7851 73.5939 69.7851C70.0691 69.7851 67.0877 70.3546 64.6497 71.4937C62.2117 72.6328 60.3465 74.2402 59.0541 76.3159C58.9473 76.4914 58.845 76.6697 58.7472 76.8507H66.8495Z" fill="url(#paint4_linear_56_95)"/>
<path d="M58.7297 77.047C60.4961 71.944 67.758 69.7851 73.5938 69.7851C75.2681 69.7851 76.913 69.9369 78.5286 70.2407C80.1441 70.5445 81.6128 70.9495 82.9346 71.4557L80.7316 76.0501C79.7622 75.6198 78.6607 75.2654 77.4271 74.987C76.1934 74.7085 74.9009 74.5693 73.5498 74.5693C71.6111 74.5693 69.1318 74.987 66.7766 76.8507L58.7297 77.047Z" fill="url(#paint5_linear_56_95)"/>
<defs>
<filter id="filter0_d_56_95" x="0" y="0" width="116" height="174" filterUnits="userSpaceOnUse" color-interpolation-filters="sRGB">
<feFlood flood-opacity="0" result="BackgroundImageFix"/>
<feColorMatrix in="SourceAlpha" type="matrix" values="0 0 0 0 0 0 0 0 0 0 0 0 0 0 0 0 0 0 127 0" result="hardAlpha"/>
<feOffset dy="4"/>
<feGaussianBlur stdDeviation="2"/>
<feComposite in2="hardAlpha" operator="out"/>
<feColorMatrix type="matrix" values="0 0 0 0 0 0 0 0 0 0 0 0 0 0 0 0 0 0 0.25 0"/>
<feBlend mode="normal" in2="BackgroundImageFix" result="effect1_dropShadow_56_95"/>
<feBlend mode="normal" in="SourceGraphic" in2="effect1_dropShadow_56_95" result="shape"/>
</filter>
<linearGradient id="paint0_linear_56_95" x1="58" y1="0" x2="58" y2="166" gradientUnits="userSpaceOnUse">
<stop stop-color="#464242"/>
<stop offset="1" stop-color="#262525"/>
</linearGradient>
<linearGradient id="paint1_linear_56_95" x1="58" y1="0" x2="58" y2="166" gradientUnits="userSpaceOnUse">
<stop stop-color="#262525"/>
<stop offset="1" stop-color="#464242"/>
</linearGradient>
<linearGradient id="paint2_linear_56_95" x1="50.4204" y1="69" x2="50.4204" y2="96.87" gradientUnits="userSpaceOnUse">
<stop stop-color="#4C4C4C"/>
<stop offset="0.312518" stop-color="#CEC4C4"/>
<stop offset="1" stop-color="#4C4C4C"/>
</linearGradient>
<linearGradient id="paint3_linear_56_95" x1="50.4204" y1="69" x2="50.4204" y2="96.87" gradientUnits="userSpaceOnUse">
<stop stop-color="#4C4C4C"/>
<stop offset="0.312518" stop-color="#CEC4C4"/>
<stop offset="1" stop-color="#4C4C4C"/>
</linearGradient>
<linearGradient id="paint4_linear_56_95" x1="58.4894" y1="69" x2="58.4894" y2="97.655" gradientUnits="userSpaceOnUse">
<stop stop-color="#E8DFDF"/>
<stop offset="0.531273" stop-color="#F7F6F5"/>
<stop offset="0.750028" stop-color="#C4B6B6"/>
<stop offset="1" stop-color="#E8DFDF"/>
</linearGradient>
<linearGradient id="paint5_linear_56_95" x1="66.1878" y1="73.9067" x2="81.8892" y2="69.7851" gradientUnits="userSpaceOnUse">
<stop stop-color="#5D2D29"/>
<stop offset="0.277873" stop-color="#AF222D"/>
<stop offset="1" stop-color="#AF222D"/>
</linearGradient>
</defs>
</svg>
