<svg width="197" height="302" viewBox="0 0 197 302" fill="none" xmlns="http://www.w3.org/2000/svg">
<rect x="50.8162" y="51.0918" width="27" height="27" transform="rotate(-45 50.8162 51.0918)" fill="#BD2F2A"/>
<rect x="107" y="51.0918" width="27" height="27" transform="rotate(-45 107 51.0918)" fill="#BD2F2A"/>
<rect x="50.8162" y="101.276" width="27" height="27" transform="rotate(-45 50.8162 101.276)" fill="#BD2F2A"/>
<rect x="107" y="101.276" width="27" height="27" transform="rotate(-45 107 101.276)" fill="#BD2F2A"/>
<rect x="50.8162" y="151.459" width="27" height="27" transform="rotate(-45 50.8162 151.459)" fill="#BD2F2A"/>
<rect x="107" y="151.459" width="27" height="27" transform="rotate(-45 107 151.459)" fill="#BD2F2A"/>
<rect x="50.8162" y="201.643" width="27" height="27" transform="rotate(-45 50.8162 201.643)" fill="#BD2F2A"/>
<rect x="107" y="201.643" width="27" height="27" transform="rotate(-45 107 201.643)" fill="#BD2F2A"/>
<rect x="50.8162" y="251.827" width="27" height="27" transform="rotate(-45 50.8162 251.827)" fill="#BD2F2A"/>
<rect x="107" y="251.827" width="27" height="27" transform="rotate(-45 107 251.827)" fill="#BD2F2A"/>
</svg>
