<svg width="25" height="24" viewBox="0 0 25 24" fill="none" xmlns="http://www.w3.org/2000/svg">
<path d="M13.6894 14.9569C13.6222 14.8833 13.5371 14.8282 13.4492 14.7823C13.2579 14.6825 13.0486 14.622 12.8408 14.5674V16.1775C13.1781 16.1394 13.5653 16.017 13.7424 15.7022C13.8269 15.5518 13.8437 15.367 13.8093 15.1995C13.7906 15.1088 13.752 15.0255 13.6894 14.9569Z" fill="white"/>
<path d="M13.7405 15.7054C13.7412 15.7042 13.7415 15.7035 13.7423 15.7023C13.7417 15.7033 13.7411 15.7043 13.7405 15.7054Z" fill="white"/>
<path d="M11.2589 12.383C11.2009 12.4677 11.1645 12.5639 11.1545 12.6661C11.1445 12.7686 11.1501 12.8825 11.189 12.979C11.2261 13.0709 11.3037 13.1387 11.3839 13.1934C11.4738 13.2545 11.5727 13.3023 11.6734 13.3428C11.7579 13.3768 11.8529 13.4093 11.9554 13.4408V11.9838C11.6966 12.039 11.4138 12.1569 11.2589 12.383Z" fill="white"/>
<path d="M13.7491 15.6903C13.747 15.6941 13.7447 15.698 13.7424 15.7022C13.7451 15.6973 13.7471 15.6938 13.7491 15.6903Z" fill="white"/>
<path d="M13.7576 15.6755C13.7583 15.6741 13.7584 15.674 13.7576 15.6755V15.6755Z" fill="white"/>
<path d="M13.4081 6.9165C14.7774 5.76623 15.6923 3.17483 15.1292 3.06149C14.3811 2.91084 12.7564 3.57144 11.9712 3.68784C10.8574 3.82231 9.64437 2.48009 8.96348 3.22824C8.40986 3.83654 9.36038 6.04874 10.8475 7.01248C6.41075 9.19308 0.174589 20.1399 11.0539 20.9341C26.1073 22.0332 18.5695 9.04145 13.4081 6.9165ZM14.7009 15.5497C14.6546 15.9764 14.4284 16.3624 14.0903 16.6244C13.7334 16.901 13.2856 17.0297 12.8408 17.0657V17.5373C12.8408 17.6635 12.7857 17.7855 12.6912 17.869C12.5614 17.9839 12.3706 18.0122 12.2131 17.9396C12.0575 17.868 11.9553 17.7085 11.9553 17.5373V17.0219C11.879 17.0074 11.8033 16.9902 11.7284 16.9696C11.3127 16.8554 10.927 16.6328 10.6453 16.3033C10.505 16.1391 10.3906 15.9528 10.3115 15.7516C10.2908 15.6991 10.2724 15.6455 10.2563 15.5914C10.2417 15.5424 10.2266 15.4926 10.2214 15.4415C10.2126 15.3558 10.2296 15.2684 10.2695 15.1921C10.3516 15.0351 10.5246 14.9403 10.7012 14.956C10.875 14.9714 11.0274 15.0921 11.0821 15.2577C11.099 15.3088 11.1104 15.3611 11.1293 15.4116C11.1481 15.4617 11.1708 15.5105 11.1974 15.5569C11.25 15.6483 11.3159 15.7326 11.3918 15.8057C11.5483 15.9565 11.7475 16.0544 11.9553 16.1127V14.3608C11.5491 14.2557 11.1298 14.1198 10.7943 13.859C10.6313 13.7322 10.493 13.5746 10.4024 13.3882C10.3068 13.1913 10.2672 12.9721 10.2655 12.7543C10.2639 12.5331 10.3059 12.314 10.3982 12.1125C10.4846 11.9238 10.609 11.7544 10.7615 11.614C11.0876 11.3139 11.5208 11.1464 11.9553 11.0849V11.0464V10.5954C11.9553 10.4693 12.0104 10.3472 12.1049 10.2637C12.2348 10.1489 12.4254 10.1205 12.583 10.1931C12.7386 10.2647 12.8408 10.4242 12.8408 10.5954V11.0464V11.0823C12.8987 11.0896 12.9564 11.0983 13.0139 11.1087C13.4406 11.1859 13.8579 11.3621 14.1699 11.6697C14.3177 11.8154 14.4387 11.989 14.5238 12.1784C14.5476 12.2312 14.5684 12.2852 14.5864 12.3403C14.6032 12.3917 14.62 12.4446 14.628 12.4982C14.6408 12.5838 14.6278 12.6723 14.5911 12.7506C14.5161 12.911 14.3478 13.0132 14.1707 13.0056C13.9967 12.998 13.839 12.8847 13.7767 12.7221C13.7582 12.6737 13.7489 12.6225 13.73 12.5743C13.7109 12.5254 13.6861 12.4788 13.6576 12.4348C13.6022 12.3493 13.5304 12.2759 13.4485 12.2155C13.271 12.0844 13.0558 12.0162 12.8407 11.978V13.6545C13.0963 13.7157 13.3521 13.7824 13.597 13.879C13.9672 14.025 14.3179 14.2488 14.5199 14.6017C14.4886 14.5467 14.4581 14.4931 14.521 14.6035C14.5827 14.7119 14.5533 14.6602 14.5223 14.6059C14.683 14.8892 14.7358 15.2279 14.7009 15.5497Z" fill="white"/>
<path d="M13.7359 15.7136C13.7333 15.7182 13.731 15.7223 13.7292 15.7254C13.7308 15.7227 13.7331 15.7187 13.7359 15.7136Z" fill="white"/>
</svg>
