<svg width="24" height="24" viewBox="0 0 24 24" fill="none" xmlns="http://www.w3.org/2000/svg">
<path d="M21.7779 3.66048L19.4214 3.32898C19.473 3.54893 19.4993 3.77405 19.4999 3.99998V18.5C19.4991 19.2954 19.1828 20.058 18.6203 20.6204C18.0579 21.1829 17.2953 21.4992 16.4999 21.5H15.7859L19.2034 21.9805C19.4635 22.017 19.7283 22.002 19.9826 21.9362C20.2369 21.8705 20.4758 21.7552 20.6855 21.5971C20.8953 21.4391 21.0719 21.2412 21.2052 21.0148C21.3385 20.7885 21.4259 20.5381 21.4624 20.278L23.4804 5.91898C23.5541 5.39372 23.4161 4.8607 23.0969 4.43715C22.7776 4.01361 22.3031 3.73423 21.7779 3.66048Z" fill="white"/>
<path d="M16.5001 2H13.2036C13.5204 2.23455 13.7877 2.52938 13.9902 2.86753C14.1927 3.20569 14.3264 3.58052 14.3836 3.9705L16.4001 18.3295C16.5095 19.0953 16.3167 19.8737 15.8626 20.5H16.5001C17.0305 20.5 17.5393 20.2893 17.9143 19.9142C18.2894 19.5391 18.5001 19.0304 18.5001 18.5V4C18.5001 3.46957 18.2894 2.96086 17.9143 2.58579C17.5393 2.21071 17.0305 2 16.5001 2Z" fill="white"/>
<path d="M15.4109 18.469L13.3929 4.10996C13.3186 3.58517 13.0389 3.11135 12.6154 2.79259C12.192 2.47384 11.6593 2.33622 11.1344 2.40996L2.2219 3.66046C1.69711 3.73481 1.22329 4.01444 0.904532 4.43792C0.585776 4.8614 0.448156 5.39408 0.521903 5.91896L2.5374 20.278C2.57392 20.5381 2.66132 20.7885 2.79461 21.0148C2.92791 21.2412 3.10448 21.439 3.31425 21.5971C3.52403 21.7552 3.76289 21.8705 4.0172 21.9362C4.27151 22.002 4.53628 22.017 4.7964 21.9805L13.7089 20.7275C14.2341 20.6536 14.7084 20.3742 15.0276 19.9506C15.3467 19.5271 15.4846 18.9941 15.4109 18.469ZM4.4779 7.32946C4.42374 7.36666 4.36278 7.39282 4.29851 7.40644C4.23424 7.42006 4.16791 7.42088 4.10331 7.40886C4.03872 7.39683 3.97713 7.37219 3.92207 7.33635C3.86701 7.3005 3.81955 7.25416 3.7824 7.19996L3.3999 6.64346L3.1844 7.28546C3.14217 7.41144 3.05162 7.51548 2.93267 7.5747C2.81373 7.63391 2.67613 7.64345 2.55015 7.60121C2.42418 7.55898 2.32014 7.46843 2.26092 7.34948C2.20171 7.23054 2.19217 7.09294 2.2344 6.96696L2.7684 5.37746C2.80321 5.29426 2.85906 5.22153 2.93048 5.16644C3.00189 5.11134 3.0864 5.07576 3.17572 5.06321C3.26504 5.05065 3.35609 5.06154 3.43992 5.09481C3.52376 5.12808 3.5975 5.18258 3.6539 5.25296L4.6039 6.63396C4.67937 6.74292 4.70849 6.87738 4.68486 7.0078C4.66124 7.13821 4.5868 7.25391 4.4779 7.32946ZM10.4914 12.308L8.9779 14.3165C8.81825 14.5281 8.5811 14.6677 8.31858 14.7045C8.05606 14.7414 7.78965 14.6725 7.5779 14.513L5.5689 13C5.19672 12.7195 4.95118 12.3026 4.88629 11.8411C4.82141 11.3796 4.94249 10.9112 5.2229 10.539C5.50357 10.1668 5.92053 9.92137 6.38212 9.85658C6.84371 9.79179 7.31213 9.91297 7.6844 10.1935C7.82183 10.0053 7.9953 9.84634 8.19472 9.72583C8.39414 9.60532 8.61553 9.52567 8.84602 9.49151C9.07651 9.45735 9.31149 9.46936 9.53729 9.52685C9.76309 9.58433 9.97521 9.68615 10.1613 9.82636C10.3474 9.96658 10.5038 10.1424 10.6213 10.3436C10.7388 10.5448 10.8151 10.7674 10.8458 10.9983C10.8766 11.2293 10.861 11.4641 10.8002 11.689C10.7393 11.9139 10.6344 12.1245 10.4914 12.3085V12.308ZM13.6959 17.421L13.1619 19.011C13.1324 19.0991 13.0789 19.1772 13.0074 19.2366C12.936 19.296 12.8494 19.3343 12.7574 19.3472C12.6654 19.3601 12.5716 19.3472 12.4866 19.3098C12.4015 19.2724 12.3286 19.212 12.2759 19.1355L11.3259 17.754C11.2507 17.6447 11.222 17.51 11.2461 17.3796C11.2702 17.2492 11.3451 17.1337 11.4544 17.0585C11.5637 16.9833 11.6983 16.9546 11.8288 16.9787C11.9592 17.0028 12.0747 17.0777 12.1499 17.187L12.5339 17.7445L12.7494 17.1025C12.7916 16.9765 12.8822 16.8724 13.0011 16.8132C13.06 16.7839 13.1241 16.7665 13.1898 16.7619C13.2554 16.7574 13.3213 16.7658 13.3837 16.7867C13.446 16.8076 13.5037 16.8406 13.5533 16.8838C13.6029 16.927 13.6436 16.9796 13.6729 17.0384C13.7022 17.0973 13.7196 17.1614 13.7242 17.2271C13.7287 17.2927 13.7203 17.3586 13.6994 17.421H13.6959Z" fill="white"/>
</svg>
